<?xml version="1.0" standalone="no"?>
<!DOCTYPE svg PUBLIC "-//W3C//DTD SVG 20010904//EN"
 "http://www.w3.org/TR/2001/REC-SVG-20010904/DTD/svg10.dtd">
<svg version="1.0" xmlns="http://www.w3.org/2000/svg"
 width="250.000000pt" height="250.000000pt" viewBox="0 0 250.000000 250.000000"
 preserveAspectRatio="xMidYMid meet">

<g transform="translate(0.000000,250.000000) scale(0.100000,-0.100000)"
fill="#8247E5" stroke="none">
<path d="M1102 2488 c-358 -45 -688 -248 -886 -546 -119 -178 -183 -359 -207
-582 -47 -434 174 -894 549 -1144 178 -119 359 -183 582 -207 130 -14 275 -2
422 35 430 110 784 464 894 894 54 212 54 412 0 624 -152 597 -746 1003 -1354
926z m-2 -653 c103 -58 196 -115 206 -126 15 -17 20 -40 22 -109 l4 -87 -76
-42 c-41 -22 -80 -41 -86 -41 -6 0 -10 31 -10 81 0 75 -2 83 -27 108 -43 42
-215 131 -253 131 -39 0 -242 -110 -265 -143 -11 -16 -15 -53 -15 -154 0 -123
2 -134 23 -157 33 -37 225 -140 262 -140 20 0 75 25 155 71 479 272 539 303
577 302 29 0 82 -25 228 -108 158 -89 193 -113 207 -142 15 -29 18 -63 18
-234 0 -171 -3 -205 -18 -234 -14 -29 -48 -52 -212 -143 -127 -70 -206 -108
-225 -108 -34 0 -398 197 -427 232 -14 16 -18 39 -18 109 l0 88 78 45 77 45 5
-82 c3 -45 11 -92 17 -104 19 -32 224 -143 265 -143 22 0 67 19 133 56 153 86
145 72 145 236 0 77 -4 148 -10 158 -11 20 -210 135 -253 145 -30 8 -56 -5
-462 -234 -169 -96 -259 -141 -280 -141 -19 0 -98 38 -225 108 -164 91 -198
114 -212 143 -15 29 -18 63 -18 234 0 171 3 205 18 234 14 29 48 52 212 143
123 68 206 108 224 108 19 0 97 -38 216 -105z"/>
</g>
</svg>
